<svg width="25" height="25" viewBox="0 0 25 25" fill="none" xmlns="http://www.w3.org/2000/svg">
<g clip-path="url(#clip0_129_238)">
<path d="M6.25 0.78125C6.25 0.57405 6.16769 0.375336 6.02118 0.228823C5.87466 0.08231 5.67595 0 5.46875 0C5.26155 0 5.06284 0.08231 4.91632 0.228823C4.76981 0.375336 4.6875 0.57405 4.6875 0.78125V1.5625H3.125C2.2962 1.5625 1.50134 1.89174 0.915291 2.47779C0.32924 3.06384 0 3.8587 0 4.6875L0 6.25H25V4.6875C25 3.8587 24.6708 3.06384 24.0847 2.47779C23.4987 1.89174 22.7038 1.5625 21.875 1.5625H20.3125V0.78125C20.3125 0.57405 20.2302 0.375336 20.0837 0.228823C19.9372 0.08231 19.7385 0 19.5312 0C19.324 0 19.1253 0.08231 18.9788 0.228823C18.8323 0.375336 18.75 0.57405 18.75 0.78125V1.5625H6.25V0.78125ZM25 21.875V7.8125H0V21.875C0 22.7038 0.32924 23.4987 0.915291 24.0847C1.50134 24.6708 2.2962 25 3.125 25H21.875C22.7038 25 23.4987 24.6708 24.0847 24.0847C24.6708 23.4987 25 22.7038 25 21.875ZM16.9594 13.8344L12.2719 18.5219C12.1993 18.5946 12.1131 18.6524 12.0182 18.6917C11.9233 18.7311 11.8215 18.7514 11.7188 18.7514C11.616 18.7514 11.5142 18.7311 11.4193 18.6917C11.3244 18.6524 11.2382 18.5946 11.1656 18.5219L8.82187 16.1781C8.67518 16.0314 8.59276 15.8325 8.59276 15.625C8.59276 15.4175 8.67518 15.2186 8.82187 15.0719C8.96857 14.9252 9.16754 14.8428 9.375 14.8428C9.58246 14.8428 9.78143 14.9252 9.92813 15.0719L11.7188 16.8641L15.8531 12.7281C15.9998 12.5814 16.1988 12.499 16.4062 12.499C16.6137 12.499 16.8127 12.5814 16.9594 12.7281C17.1061 12.8748 17.1885 13.0738 17.1885 13.2812C17.1885 13.4887 17.1061 13.6877 16.9594 13.8344Z" fill="#9078D9"/>
</g>
<defs>
<clipPath id="clip0_129_238">
<rect width="25" height="25" fill="white"/>
</clipPath>
</defs>
</svg>
