<svg xmlns="http://www.w3.org/2000/svg" width="212" height="30" fill="none" viewBox="0 0 212 30"><path fill="#9078D9" d="M11 29.4C9.13333 29.4 7.45333 29.1733 5.96 28.72C4.46667 28.24 3.04 27.4133 1.68 26.24C1.33333 25.9467 1.06667 25.6133 0.88 25.24C0.693333 24.8667 0.6 24.4933 0.6 24.12C0.6 23.5067 0.813333 22.9733 1.24 22.52C1.69333 22.04 2.25333 21.8 2.92 21.8C3.42667 21.8 3.88 21.96 4.28 22.28C5.29333 23.1067 6.29333 23.7333 7.28 24.16C8.29333 24.5867 9.53333 24.8 11 24.8C11.9867 24.8 12.8933 24.6533 13.72 24.36C14.5467 24.04 15.2133 23.6267 15.72 23.12C16.2267 22.5867 16.48 21.9867 16.48 21.32C16.48 20.52 16.24 19.84 15.76 19.28C15.28 18.72 14.5467 18.2533 13.56 17.88C12.5733 17.48 11.32 17.1733 9.8 16.96C8.36 16.7467 7.09333 16.4267 6 16C4.90667 15.5467 3.98667 14.9867 3.24 14.32C2.52 13.6267 1.97333 12.8267 1.6 11.92C1.22667 10.9867 1.04 9.94667 1.04 8.8C1.04 7.06667 1.48 5.58666 2.36 4.36C3.26667 3.13333 4.48 2.2 6 1.56C7.52 0.919998 9.2 0.599998 11.04 0.599998C12.7733 0.599998 14.3733 0.866665 15.84 1.4C17.3333 1.90667 18.5467 2.56 19.48 3.36C20.2533 3.97333 20.64 4.68 20.64 5.48C20.64 6.06667 20.4133 6.6 19.96 7.08C19.5067 7.56 18.9733 7.8 18.36 7.8C17.96 7.8 17.6 7.68 17.28 7.44C16.8533 7.06667 16.28 6.72 15.56 6.4C14.84 6.05333 14.08 5.77333 13.28 5.56C12.48 5.32 11.7333 5.2 11.04 5.2C9.89333 5.2 8.92 5.34667 8.12 5.64C7.34667 5.93333 6.76 6.33333 6.36 6.84C5.96 7.34667 5.76 7.93333 5.76 8.6C5.76 9.4 5.98667 10.0667 6.44 10.6C6.92 11.1067 7.6 11.52 8.48 11.84C9.36 12.1333 10.4133 12.4 11.64 12.64C13.24 12.9333 14.64 13.28 15.84 13.68C17.0667 14.08 18.08 14.6 18.88 15.24C19.68 15.8533 20.28 16.64 20.68 17.6C21.08 18.5333 21.28 19.68 21.28 21.04C21.28 22.7733 20.8 24.2667 19.84 25.52C18.88 26.7733 17.6133 27.7333 16.04 28.4C14.4933 29.0667 12.8133 29.4 11 29.4ZM36.7072 7.2C38.8405 7.2 40.4139 7.72 41.4272 8.76C42.4405 9.77333 43.1072 11.0933 43.4272 12.72L42.7472 12.36L43.0672 11.72C43.3872 11.1067 43.8805 10.4533 44.5472 9.76C45.2139 9.04 46.0139 8.44 46.9472 7.96C47.9072 7.45333 48.9739 7.2 50.1472 7.2C52.0672 7.2 53.5205 7.61333 54.5072 8.44C55.5205 9.26667 56.2139 10.3733 56.5872 11.76C56.9605 13.12 57.1472 14.64 57.1472 16.32V26.56C57.1472 27.2533 56.9205 27.84 56.4672 28.32C56.0139 28.7733 55.4405 29 54.7472 29C54.0539 29 53.4805 28.7733 53.0272 28.32C52.5739 27.84 52.3472 27.2533 52.3472 26.56V16.32C52.3472 15.44 52.2405 14.6533 52.0272 13.96C51.8139 13.24 51.4272 12.6667 50.8672 12.24C50.3072 11.8133 49.5072 11.6 48.4672 11.6C47.4539 11.6 46.5872 11.8133 45.8672 12.24C45.1472 12.6667 44.6005 13.24 44.2272 13.96C43.8805 14.6533 43.7072 15.44 43.7072 16.32V26.56C43.7072 27.2533 43.4805 27.84 43.0272 28.32C42.5739 28.7733 42.0005 29 41.3072 29C40.6139 29 40.0405 28.7733 39.5872 28.32C39.1339 27.84 38.9072 27.2533 38.9072 26.56V16.32C38.9072 15.44 38.8005 14.6533 38.5872 13.96C38.3739 13.24 37.9872 12.6667 37.4272 12.24C36.8672 11.8133 36.0672 11.6 35.0272 11.6C34.0139 11.6 33.1472 11.8133 32.4272 12.24C31.7072 12.6667 31.1605 13.24 30.7872 13.96C30.4405 14.6533 30.2672 15.44 30.2672 16.32V26.56C30.2672 27.2533 30.0405 27.84 29.5872 28.32C29.1339 28.7733 28.5605 29 27.8672 29C27.1739 29 26.6005 28.7733 26.1472 28.32C25.6939 27.84 25.4672 27.2533 25.4672 26.56V10.04C25.4672 9.34667 25.6939 8.77333 26.1472 8.32C26.6005 7.84 27.1739 7.6 27.8672 7.6C28.5605 7.6 29.1339 7.84 29.5872 8.32C30.0405 8.77333 30.2672 9.34667 30.2672 10.04V11.76L29.6672 11.64C29.9072 11.1867 30.2405 10.7067 30.6672 10.2C31.0939 9.66667 31.6139 9.17333 32.2272 8.72C32.8405 8.26666 33.5205 7.90666 34.2672 7.64C35.0139 7.34667 35.8272 7.2 36.7072 7.2ZM79.8622 7.2C80.5555 7.2 81.1289 7.42667 81.5822 7.88C82.0355 8.33333 82.2622 8.92 82.2622 9.64V26.56C82.2622 27.2533 82.0355 27.84 81.5822 28.32C81.1289 28.7733 80.5555 29 79.8622 29C79.1689 29 78.5955 28.7733 78.1422 28.32C77.6889 27.84 77.4622 27.2533 77.4622 26.56V24.6L78.3422 24.96C78.3422 25.3067 78.1555 25.7333 77.7822 26.24C77.4089 26.72 76.9022 27.2 76.2622 27.68C75.6222 28.16 74.8622 28.5733 73.9822 28.92C73.1289 29.24 72.1955 29.4 71.1822 29.4C69.3422 29.4 67.6755 28.9333 66.1822 28C64.6889 27.04 63.5022 25.7333 62.6222 24.08C61.7689 22.4 61.3422 20.48 61.3422 18.32C61.3422 16.1333 61.7689 14.2133 62.6222 12.56C63.5022 10.88 64.6755 9.57333 66.1422 8.64C67.6089 7.68 69.2355 7.2 71.0222 7.2C72.1689 7.2 73.2222 7.37333 74.1822 7.72C75.1422 8.06667 75.9689 8.50667 76.6622 9.04C77.3822 9.57333 77.9289 10.12 78.3022 10.68C78.7022 11.2133 78.9022 11.6667 78.9022 12.04L77.4622 12.56V9.64C77.4622 8.94666 77.6889 8.37333 78.1422 7.92C78.5955 7.44 79.1689 7.2 79.8622 7.2ZM71.7822 25C72.9555 25 73.9822 24.7067 74.8622 24.12C75.7422 23.5333 76.4222 22.7333 76.9022 21.72C77.4089 20.7067 77.6622 19.5733 77.6622 18.32C77.6622 17.04 77.4089 15.8933 76.9022 14.88C76.4222 13.8667 75.7422 13.0667 74.8622 12.48C73.9822 11.8933 72.9555 11.6 71.7822 11.6C70.6355 11.6 69.6222 11.8933 68.7422 12.48C67.8622 13.0667 67.1689 13.8667 66.6622 14.88C66.1822 15.8933 65.9422 17.04 65.9422 18.32C65.9422 19.5733 66.1822 20.7067 66.6622 21.72C67.1689 22.7333 67.8622 23.5333 68.7422 24.12C69.6222 24.7067 70.6355 25 71.7822 25ZM89.8594 29C89.166 29 88.5927 28.7733 88.1394 28.32C87.686 27.84 87.4594 27.2533 87.4594 26.56V10.04C87.4594 9.34667 87.686 8.77333 88.1394 8.32C88.5927 7.84 89.166 7.6 89.8594 7.6C90.5527 7.6 91.126 7.84 91.5794 8.32C92.0327 8.77333 92.2594 9.34667 92.2594 10.04V13.8L91.9794 11.12C92.2727 10.48 92.646 9.92 93.0994 9.44C93.5794 8.93333 94.1127 8.52 94.6994 8.2C95.286 7.85333 95.9127 7.6 96.5794 7.44C97.246 7.28 97.9127 7.2 98.5794 7.2C99.3794 7.2 100.046 7.42667 100.579 7.88C101.139 8.33333 101.419 8.86667 101.419 9.48C101.419 10.36 101.193 11 100.739 11.4C100.286 11.7733 99.7927 11.96 99.2594 11.96C98.7527 11.96 98.286 11.8667 97.8594 11.68C97.4594 11.4933 96.9927 11.4 96.4594 11.4C95.9794 11.4 95.486 11.52 94.9794 11.76C94.4994 11.9733 94.046 12.32 93.6194 12.8C93.2194 13.28 92.886 13.88 92.6194 14.6C92.3794 15.2933 92.2594 16.12 92.2594 17.08V26.56C92.2594 27.2533 92.0327 27.84 91.5794 28.32C91.126 28.7733 90.5527 29 89.8594 29ZM105.043 8H114.523C115.163 8 115.696 8.21333 116.123 8.64C116.55 9.06667 116.763 9.6 116.763 10.24C116.763 10.8533 116.55 11.3733 116.123 11.8C115.696 12.2 115.163 12.4 114.523 12.4H105.043C104.403 12.4 103.87 12.1867 103.443 11.76C103.016 11.3333 102.803 10.8 102.803 10.16C102.803 9.54667 103.016 9.04 103.443 8.64C103.87 8.21333 104.403 8 105.043 8ZM109.323 3C110.016 3 110.576 3.24 111.003 3.72C111.456 4.17333 111.683 4.74667 111.683 5.44V23.24C111.683 23.6133 111.75 23.92 111.883 24.16C112.043 24.4 112.243 24.5733 112.483 24.68C112.75 24.7867 113.03 24.84 113.323 24.84C113.643 24.84 113.936 24.7867 114.203 24.68C114.47 24.5467 114.776 24.48 115.123 24.48C115.496 24.48 115.83 24.6533 116.123 25C116.443 25.3467 116.603 25.8267 116.603 26.44C116.603 27.1867 116.19 27.8 115.363 28.28C114.563 28.76 113.696 29 112.763 29C112.203 29 111.576 28.96 110.883 28.88C110.216 28.7733 109.576 28.5467 108.963 28.2C108.376 27.8267 107.883 27.2667 107.483 26.52C107.083 25.7733 106.883 24.7467 106.883 23.44V5.44C106.883 4.74667 107.11 4.17333 107.563 3.72C108.043 3.24 108.63 3 109.323 3ZM131.05 29C130.304 29 129.69 28.7733 129.21 28.32C128.73 27.84 128.49 27.2533 128.49 26.56V3.36H133.69V26.56C133.69 27.2533 133.437 27.84 132.93 28.32C132.45 28.7733 131.824 29 131.05 29ZM122.21 5.6C121.517 5.6 120.93 5.38667 120.45 4.96C119.997 4.53333 119.77 3.97333 119.77 3.28C119.77 2.58667 119.997 2.04 120.45 1.64C120.93 1.21333 121.517 0.999998 122.21 0.999998H139.97C140.664 0.999998 141.237 1.21333 141.69 1.64C142.17 2.06667 142.41 2.62667 142.41 3.32C142.41 4.01333 142.17 4.57333 141.69 5C141.237 5.4 140.664 5.6 139.97 5.6H122.21ZM150.729 26.56C150.729 27.2533 150.503 27.84 150.049 28.32C149.596 28.7733 149.023 29 148.329 29C147.636 29 147.063 28.7733 146.609 28.32C146.156 27.84 145.929 27.2533 145.929 26.56V10.04C145.929 9.34667 146.156 8.77333 146.609 8.32C147.063 7.84 147.636 7.6 148.329 7.6C149.023 7.6 149.596 7.84 150.049 8.32C150.503 8.77333 150.729 9.34667 150.729 10.04V26.56ZM148.289 5C147.383 5 146.743 4.85333 146.369 4.56C145.996 4.26667 145.809 3.74667 145.809 3V2.24C145.809 1.46667 146.009 0.946666 146.409 0.68C146.836 0.386666 147.476 0.239998 148.329 0.239998C149.263 0.239998 149.916 0.386666 150.289 0.68C150.663 0.973333 150.849 1.49333 150.849 2.24V3C150.849 3.77333 150.649 4.30667 150.249 4.6C149.849 4.86667 149.196 5 148.289 5ZM166.903 7.2C169.036 7.2 170.609 7.72 171.623 8.76C172.636 9.77333 173.303 11.0933 173.622 12.72L172.943 12.36L173.262 11.72C173.583 11.1067 174.076 10.4533 174.743 9.76C175.409 9.04 176.209 8.44 177.143 7.96C178.103 7.45333 179.169 7.2 180.343 7.2C182.263 7.2 183.716 7.61333 184.703 8.44C185.716 9.26667 186.409 10.3733 186.783 11.76C187.156 13.12 187.343 14.64 187.343 16.32V26.56C187.343 27.2533 187.116 27.84 186.663 28.32C186.209 28.7733 185.636 29 184.943 29C184.249 29 183.676 28.7733 183.223 28.32C182.769 27.84 182.543 27.2533 182.543 26.56V16.32C182.543 15.44 182.436 14.6533 182.223 13.96C182.009 13.24 181.623 12.6667 181.063 12.24C180.503 11.8133 179.703 11.6 178.663 11.6C177.649 11.6 176.783 11.8133 176.063 12.24C175.343 12.6667 174.796 13.24 174.423 13.96C174.076 14.6533 173.903 15.44 173.903 16.32V26.56C173.903 27.2533 173.676 27.84 173.223 28.32C172.769 28.7733 172.196 29 171.503 29C170.809 29 170.236 28.7733 169.783 28.32C169.329 27.84 169.103 27.2533 169.103 26.56V16.32C169.103 15.44 168.996 14.6533 168.783 13.96C168.569 13.24 168.183 12.6667 167.623 12.24C167.063 11.8133 166.263 11.6 165.223 11.6C164.209 11.6 163.343 11.8133 162.623 12.24C161.903 12.6667 161.356 13.24 160.983 13.96C160.636 14.6533 160.463 15.44 160.463 16.32V26.56C160.463 27.2533 160.236 27.84 159.783 28.32C159.329 28.7733 158.756 29 158.062 29C157.369 29 156.796 28.7733 156.343 28.32C155.889 27.84 155.663 27.2533 155.663 26.56V10.04C155.663 9.34667 155.889 8.77333 156.343 8.32C156.796 7.84 157.369 7.6 158.062 7.6C158.756 7.6 159.329 7.84 159.783 8.32C160.236 8.77333 160.463 9.34667 160.463 10.04V11.76L159.863 11.64C160.103 11.1867 160.436 10.7067 160.863 10.2C161.289 9.66667 161.809 9.17333 162.423 8.72C163.036 8.26666 163.716 7.90666 164.463 7.64C165.209 7.34667 166.023 7.2 166.903 7.2ZM202.618 29.4C200.351 29.4 198.378 28.9333 196.698 28C195.044 27.04 193.764 25.7467 192.858 24.12C191.978 22.4933 191.538 20.6533 191.538 18.6C191.538 16.2 192.018 14.16 192.978 12.48C193.964 10.7733 195.244 9.46667 196.818 8.56C198.391 7.65333 200.058 7.2 201.818 7.2C203.178 7.2 204.458 7.48 205.658 8.04C206.884 8.6 207.964 9.37333 208.898 10.36C209.831 11.32 210.564 12.44 211.098 13.72C211.658 15 211.938 16.36 211.938 17.8C211.911 18.44 211.658 18.96 211.178 19.36C210.698 19.76 210.138 19.96 209.498 19.96H194.218L193.018 15.96H207.698L206.818 16.76V15.68C206.764 14.9067 206.484 14.2133 205.978 13.6C205.498 12.9867 204.884 12.5067 204.138 12.16C203.418 11.7867 202.644 11.6 201.818 11.6C201.018 11.6 200.271 11.7067 199.578 11.92C198.884 12.1333 198.284 12.4933 197.778 13C197.271 13.5067 196.871 14.1867 196.578 15.04C196.284 15.8933 196.138 16.9733 196.138 18.28C196.138 19.72 196.431 20.9467 197.018 21.96C197.631 22.9467 198.404 23.7067 199.338 24.24C200.298 24.7467 201.311 25 202.378 25C203.364 25 204.151 24.92 204.738 24.76C205.324 24.6 205.791 24.4133 206.138 24.2C206.511 23.96 206.844 23.76 207.138 23.6C207.618 23.36 208.071 23.24 208.498 23.24C209.084 23.24 209.564 23.44 209.938 23.84C210.338 24.24 210.538 24.7067 210.538 25.24C210.538 25.96 210.164 26.6133 209.418 27.2C208.724 27.7867 207.751 28.3067 206.498 28.76C205.244 29.1867 203.951 29.4 202.618 29.4Z"/></svg>