<svg width="200" height="32" viewBox="0 0 200 32" fill="none" xmlns="http://www.w3.org/2000/svg">
<path d="M9.04 27.24C10.8533 27.24 12.1733 26.9333 13 26.32C13.8267 25.7067 14.24 24.84 14.24 23.72C14.24 23.0533 14.0933 22.48 13.8 22C13.5333 21.52 13.1333 21.0933 12.6 20.72C12.0933 20.32 11.4667 19.96 10.72 19.64C9.97333 19.2933 9.12 18.96 8.16 18.64C7.2 18.2933 6.26667 17.92 5.36 17.52C4.48 17.0933 3.69333 16.5733 3 15.96C2.33333 15.3467 1.78667 14.6133 1.36 13.76C0.96 12.9067 0.76 11.88 0.76 10.68C0.76 8.17333 1.62667 6.21333 3.36 4.8C5.09333 3.36 7.45333 2.64 10.44 2.64C12.1733 2.64 13.7067 2.84 15.04 3.24C16.4 3.61333 17.4667 4.02667 18.24 4.48L16.68 8.56C15.7733 8.05333 14.7733 7.66667 13.68 7.4C12.6133 7.13333 11.5067 7 10.36 7C9 7 7.93333 7.28 7.16 7.84C6.41333 8.4 6.04 9.18667 6.04 10.2C6.04 10.8133 6.16 11.3467 6.4 11.8C6.66667 12.2267 7.02667 12.6133 7.48 12.96C7.96 13.3067 8.50667 13.6267 9.12 13.92C9.76 14.2133 10.4533 14.4933 11.2 14.76C12.5067 15.24 13.6667 15.7333 14.68 16.24C15.72 16.72 16.5867 17.3067 17.28 18C18 18.6667 18.5467 19.4667 18.92 20.4C19.2933 21.3067 19.48 22.4133 19.48 23.72C19.48 26.2267 18.5867 28.1733 16.8 29.56C15.04 30.92 12.4533 31.6 9.04 31.6C7.89333 31.6 6.84 31.52 5.88 31.36C4.94667 31.2267 4.10667 31.0533 3.36 30.84C2.64 30.6267 2.01333 30.4133 1.48 30.2C0.946667 29.96 0.52 29.7467 0.2 29.56L1.68 25.44C2.4 25.84 3.37333 26.24 4.6 26.64C5.82667 27.04 7.30667 27.24 9.04 27.24ZM35.6016 20C35.6016 17.8133 35.3216 16.24 34.7616 15.28C34.2282 14.2933 33.2149 13.8 31.7216 13.8C31.1882 13.8 30.6016 13.84 29.9616 13.92C29.3216 14 28.8416 14.0667 28.5216 14.12V31H23.6816V10.76C24.6149 10.4933 25.8282 10.24 27.3216 10C28.8416 9.76 30.4416 9.64 32.1216 9.64C33.5616 9.64 34.7349 9.82667 35.6416 10.2C36.5749 10.5733 37.3482 11.0667 37.9616 11.68C38.2549 11.4667 38.6282 11.24 39.0816 11C39.5349 10.76 40.0416 10.5467 40.6016 10.36C41.1616 10.1467 41.7482 9.97333 42.3616 9.84C43.0016 9.70667 43.6416 9.64 44.2816 9.64C45.9082 9.64 47.2416 9.88 48.2816 10.36C49.3482 10.8133 50.1749 11.4667 50.7616 12.32C51.3749 13.1467 51.7882 14.16 52.0016 15.36C52.2416 16.5333 52.3616 17.8267 52.3616 19.24V31H47.5216V20C47.5216 17.8133 47.2549 16.24 46.7216 15.28C46.1882 14.2933 45.1616 13.8 43.6416 13.8C42.8682 13.8 42.1349 13.9333 41.4416 14.2C40.7482 14.44 40.2282 14.68 39.8816 14.92C40.0949 15.5867 40.2416 16.2933 40.3216 17.04C40.4016 17.7867 40.4416 18.5867 40.4416 19.44V31H35.6016V20ZM65.6509 27.6C67.1443 27.6 68.2776 27.52 69.0509 27.36V22C68.7843 21.92 68.3976 21.84 67.8909 21.76C67.3843 21.68 66.8243 21.64 66.2109 21.64C65.6776 21.64 65.1309 21.68 64.5709 21.76C64.0376 21.84 63.5443 21.9867 63.0909 22.2C62.6643 22.4133 62.3176 22.72 62.0509 23.12C61.7843 23.4933 61.6509 23.9733 61.6509 24.56C61.6509 25.7067 62.0109 26.5067 62.7309 26.96C63.4509 27.3867 64.4243 27.6 65.6509 27.6ZM65.2509 9.56C66.8509 9.56 68.1976 9.76 69.2909 10.16C70.3843 10.56 71.2509 11.12 71.8909 11.84C72.5576 12.56 73.0243 13.44 73.2909 14.48C73.5843 15.4933 73.7309 16.6133 73.7309 17.84V30.52C72.9843 30.68 71.8509 30.8667 70.3309 31.08C68.8376 31.32 67.1443 31.44 65.2509 31.44C63.9976 31.44 62.8509 31.32 61.8109 31.08C60.7709 30.84 59.8776 30.4533 59.1309 29.92C58.4109 29.3867 57.8376 28.6933 57.4109 27.84C57.0109 26.9867 56.8109 25.9333 56.8109 24.68C56.8109 23.48 57.0376 22.4667 57.4909 21.64C57.9709 20.8133 58.6109 20.1467 59.4109 19.64C60.2109 19.1067 61.1309 18.7333 62.1709 18.52C63.2376 18.28 64.3443 18.16 65.4909 18.16C66.0243 18.16 66.5843 18.2 67.1709 18.28C67.7576 18.3333 68.3843 18.44 69.0509 18.6V17.8C69.0509 17.24 68.9843 16.7067 68.8509 16.2C68.7176 15.6933 68.4776 15.2533 68.1309 14.88C67.8109 14.48 67.3709 14.1733 66.8109 13.96C66.2776 13.7467 65.5976 13.64 64.7709 13.64C63.6509 13.64 62.6243 13.72 61.6909 13.88C60.7576 14.04 59.9976 14.2267 59.4109 14.44L58.8109 10.52C59.4243 10.3067 60.3176 10.0933 61.4909 9.88C62.6643 9.66667 63.9176 9.56 65.2509 9.56ZM91.5781 14.44C91.1781 14.3067 90.6181 14.1733 89.8981 14.04C89.2048 13.88 88.3915 13.8 87.4581 13.8C86.9248 13.8 86.3515 13.8533 85.7381 13.96C85.1515 14.0667 84.7381 14.16 84.4981 14.24V31H79.6581V11.08C80.5915 10.7333 81.7515 10.4133 83.1381 10.12C84.5515 9.8 86.1115 9.64 87.8181 9.64C88.1381 9.64 88.5115 9.66667 88.9381 9.72C89.3648 9.74667 89.7915 9.8 90.2181 9.88C90.6448 9.93333 91.0581 10.0133 91.4581 10.12C91.8581 10.2 92.1781 10.28 92.4181 10.36L91.5781 14.44ZM95.5509 4.56L100.391 3.76V10.08H107.831V14.12H100.391V22.64C100.391 24.32 100.658 25.52 101.191 26.24C101.724 26.96 102.631 27.32 103.911 27.32C104.791 27.32 105.564 27.2267 106.231 27.04C106.924 26.8533 107.471 26.68 107.871 26.52L108.671 30.36C108.111 30.6 107.378 30.84 106.471 31.08C105.564 31.3467 104.498 31.48 103.271 31.48C101.778 31.48 100.524 31.28 99.5109 30.88C98.5243 30.48 97.7376 29.9067 97.1509 29.16C96.5643 28.3867 96.1509 27.4667 95.9109 26.4C95.6709 25.3067 95.5509 24.0667 95.5509 22.68V4.56ZM132.07 3.28V7.64H123.55V31H118.47V7.64H109.95V3.28H132.07ZM140.554 31H135.714V10.08H140.554V31ZM141.074 3.96C141.074 4.86667 140.78 5.58667 140.194 6.12C139.607 6.65333 138.914 6.92 138.114 6.92C137.287 6.92 136.58 6.65333 135.994 6.12C135.407 5.58667 135.114 4.86667 135.114 3.96C135.114 3.02667 135.407 2.29333 135.994 1.76C136.58 1.22667 137.287 0.959998 138.114 0.959998C138.914 0.959998 139.607 1.22667 140.194 1.76C140.78 2.29333 141.074 3.02667 141.074 3.96ZM158.648 20C158.648 17.8133 158.368 16.24 157.808 15.28C157.275 14.2933 156.262 13.8 154.768 13.8C154.235 13.8 153.648 13.84 153.008 13.92C152.368 14 151.888 14.0667 151.568 14.12V31H146.728V10.76C147.662 10.4933 148.875 10.24 150.368 10C151.888 9.76 153.488 9.64 155.168 9.64C156.608 9.64 157.782 9.82667 158.688 10.2C159.622 10.5733 160.395 11.0667 161.008 11.68C161.302 11.4667 161.675 11.24 162.128 11C162.582 10.76 163.088 10.5467 163.648 10.36C164.208 10.1467 164.795 9.97333 165.408 9.84C166.048 9.70667 166.688 9.64 167.328 9.64C168.955 9.64 170.288 9.88 171.328 10.36C172.395 10.8133 173.222 11.4667 173.808 12.32C174.422 13.1467 174.835 14.16 175.048 15.36C175.288 16.5333 175.408 17.8267 175.408 19.24V31H170.568V20C170.568 17.8133 170.302 16.24 169.768 15.28C169.235 14.2933 168.208 13.8 166.688 13.8C165.915 13.8 165.182 13.9333 164.488 14.2C163.795 14.44 163.275 14.68 162.928 14.92C163.142 15.5867 163.288 16.2933 163.368 17.04C163.448 17.7867 163.488 18.5867 163.488 19.44V31H158.648V20ZM180.178 20.64C180.178 18.8 180.444 17.1867 180.978 15.8C181.538 14.4133 182.271 13.2667 183.178 12.36C184.084 11.4267 185.124 10.7333 186.298 10.28C187.471 9.8 188.671 9.56 189.898 9.56C192.778 9.56 195.018 10.4533 196.618 12.24C198.244 14.0267 199.058 16.6933 199.058 20.24C199.058 20.5067 199.044 20.8133 199.018 21.16C199.018 21.48 199.004 21.7733 198.978 22.04H185.178C185.311 23.72 185.898 25.0267 186.938 25.96C188.004 26.8667 189.538 27.32 191.538 27.32C192.711 27.32 193.778 27.2133 194.738 27C195.724 26.7867 196.498 26.56 197.058 26.32L197.698 30.28C197.431 30.4133 197.058 30.56 196.578 30.72C196.124 30.8533 195.591 30.9733 194.978 31.08C194.391 31.2133 193.751 31.32 193.058 31.4C192.364 31.48 191.658 31.52 190.938 31.52C189.098 31.52 187.498 31.2533 186.138 30.72C184.778 30.16 183.658 29.4 182.778 28.44C181.898 27.4533 181.244 26.3067 180.818 25C180.391 23.6667 180.178 22.2133 180.178 20.64ZM194.218 18.48C194.218 17.8133 194.124 17.1867 193.938 16.6C193.751 15.9867 193.471 15.4667 193.098 15.04C192.751 14.5867 192.311 14.24 191.778 14C191.271 13.7333 190.658 13.6 189.938 13.6C189.191 13.6 188.538 13.7467 187.978 14.04C187.418 14.3067 186.938 14.6667 186.538 15.12C186.164 15.5733 185.871 16.0933 185.658 16.68C185.444 17.2667 185.298 17.8667 185.218 18.48H194.218Z" fill="#EFEDF5"/>
</svg>
