<svg xmlns="http://www.w3.org/2000/svg" width="25" height="25" fill="none" viewBox="0 0 25 25"><path fill="#9078D9" d="M12.4998 1.5625C12.707 1.5625 12.9057 1.64481 13.0522 1.79132C13.1987 1.93784 13.281 2.13655 13.281 2.34375V10.5359L14.0623 11.0937V7.375C14.0623 5.89062 15.2654 4.6875 16.7498 4.6875C17.5685 4.6875 18.3482 5.10937 19.0045 5.6125C19.6779 6.13125 20.3279 6.82031 20.9045 7.53281C22.0545 8.95156 23.0092 10.5734 23.3732 11.4078C23.6482 12.0406 23.9873 13.2203 24.242 14.55C24.4998 15.8891 24.6842 17.4516 24.617 18.8609C24.5545 20.2156 24.2545 21.6578 23.3092 22.5016C22.2623 23.4391 20.7748 23.3703 19.0263 22.4953L16.2217 21.0937C15.5728 20.7693 15.0271 20.2707 14.6457 19.6536C14.2643 19.0365 14.0623 18.3254 14.0623 17.6V13.0141L12.4998 11.8969L10.9373 13.0141V11.2719C10.781 11.2719 10.6217 11.3187 10.4842 11.4172L6.5779 14.2078C6.49077 14.2658 6.41618 14.3408 6.35858 14.4282C6.30097 14.5156 6.26151 14.6136 6.24254 14.7166C6.22358 14.8195 6.2255 14.9252 6.24819 15.0274C6.27088 15.1296 6.31387 15.2262 6.37461 15.3115C6.43536 15.3967 6.51261 15.4689 6.6018 15.5237C6.69098 15.5785 6.79026 15.6148 6.89376 15.6305C6.99726 15.6462 7.10285 15.641 7.20427 15.615C7.30569 15.5891 7.40087 15.5431 7.48415 15.4797L10.9373 13.0141V17.6C10.9373 18.3254 10.7352 19.0365 10.3538 19.6536C9.97244 20.2707 9.42675 20.7693 8.7779 21.0937L5.97322 22.4953C4.22322 23.3703 2.73884 23.4375 1.6904 22.5016C0.745092 21.6578 0.44353 20.2156 0.38103 18.8609C0.315405 17.4516 0.49978 15.8891 0.75603 14.55C1.01228 13.2187 1.34978 12.0406 1.6279 11.4062C1.9904 10.5734 2.94509 8.95156 4.09509 7.53281C4.67322 6.82031 5.32165 6.13125 5.99509 5.6125C6.65134 5.10937 7.43103 4.6875 8.24978 4.6875C9.73415 4.6875 10.9373 5.89062 10.9373 7.375V11.0937L11.7185 10.5359V2.34375C11.7185 2.13655 11.8008 1.93784 11.9474 1.79132C12.0939 1.64481 12.2926 1.5625 12.4998 1.5625ZM17.5154 15.4797C17.5987 15.5431 17.6939 15.5891 17.7953 15.615C17.8967 15.641 18.0023 15.6462 18.1058 15.6305C18.2093 15.6148 18.3086 15.5785 18.3978 15.5237C18.4869 15.4689 18.5642 15.3967 18.6249 15.3115C18.6857 15.2262 18.7287 15.1296 18.7514 15.0274C18.7741 14.9252 18.776 14.8195 18.757 14.7166C18.7381 14.6136 18.6986 14.5156 18.641 14.4282C18.5834 14.3408 18.5088 14.2658 18.4217 14.2078L14.5154 11.4172C14.3832 11.3226 14.2248 11.2718 14.0623 11.2719V13.0141L17.5154 15.4812V15.4797Z"/></svg>